<?xml version="1.0" encoding="utf-8"?>
<!-- Generator: Adobe Illustrator 18.1.1, SVG Export Plug-In . SVG Version: 6.00 Build 0)  -->
<svg version="1.1" id="Calque_1" xmlns="http://www.w3.org/2000/svg" xmlns:xlink="http://www.w3.org/1999/xlink" x="0px" y="0px"
	 viewBox="-304.9 425.4 375.3 40" enable-background="new -304.9 425.4 375.3 40" xml:space="preserve">
<g>
	<path d="M-285.7,465.4c-6.2,0-11-1.7-14.2-5.2c-3.3-3.5-4.9-8.4-4.9-14.8c0-3.2,0.5-6,1.5-8.5c1-2.5,2.4-4.6,4.1-6.3
		c1.7-1.7,3.8-3,6.2-3.9c2.4-0.9,5-1.3,7.8-1.3c1.6,0,3.1,0.1,4.4,0.4c1.3,0.2,2.5,0.5,3.5,0.8c1,0.3,1.8,0.6,2.5,1
		c0.7,0.3,1.1,0.6,1.4,0.8l-2.5,7c-1.2-0.6-2.6-1.2-4.1-1.6c-1.6-0.4-3.3-0.7-5.3-0.7c-1.3,0-2.6,0.2-3.9,0.7
		c-1.3,0.4-2.4,1.2-3.4,2.1c-1,1-1.8,2.2-2.4,3.8c-0.6,1.6-0.9,3.4-0.9,5.6c0,1.8,0.2,3.4,0.6,5c0.4,1.5,1,2.8,1.9,4
		c0.9,1.1,2,2,3.4,2.6c1.4,0.6,3.1,1,5.1,1c1.3,0,2.4-0.1,3.4-0.2c1-0.1,1.9-0.3,2.7-0.5c0.8-0.2,1.5-0.4,2-0.7
		c0.6-0.3,1.1-0.5,1.6-0.7l2.4,6.9c-1.2,0.7-2.9,1.4-5.1,2C-280.3,465.1-282.8,465.4-285.7,465.4z"/>
	<path d="M-255.4,464.6v-38.3h25.9v7.2h-17.3v7.5h15.3v7.1h-15.3v9.2h18.5v7.2H-255.4z"/>
	<path d="M-196.9,425.8c5.7,0,10.1,1,13.2,3c3.1,2,4.6,5.3,4.6,9.9c0,4.6-1.5,7.9-4.6,10c-3.1,2-7.5,3.1-13.3,3.1h-2.7v12.8h-8.6
		v-37.8c1.9-0.4,3.9-0.6,6-0.8C-200.3,425.9-198.4,425.8-196.9,425.8z M-196.3,433.2c-0.6,0-1.2,0-1.9,0.1c-0.6,0-1.1,0.1-1.6,0.1
		v11.1h2.7c3,0,5.2-0.4,6.7-1.2c1.5-0.8,2.3-2.3,2.3-4.5c0-1.1-0.2-2-0.6-2.7c-0.4-0.7-0.9-1.3-1.7-1.7c-0.7-0.4-1.6-0.7-2.6-0.9
		C-193.9,433.3-195.1,433.2-196.3,433.2z"/>
	<path fill="#075CE6" d="M-151.1,425.8c5.8,0,10.2,1,13.2,3.1c3.1,2,4.6,5.2,4.6,9.5c0,2.7-0.6,4.9-1.9,6.6c-1.2,1.7-3,3-5.3,4
		c0.8,1,1.6,2.1,2.4,3.3c0.8,1.2,1.7,2.5,2.5,3.9c0.8,1.3,1.6,2.7,2.4,4.2c0.8,1.5,1.5,2.9,2.2,4.3h-9.6c-0.7-1.3-1.4-2.5-2.1-3.8
		c-0.7-1.3-1.5-2.5-2.2-3.8c-0.8-1.2-1.5-2.4-2.2-3.5c-0.7-1.1-1.5-2.1-2.2-3h-4.3v14h-8.6v-37.8c1.9-0.4,3.8-0.6,5.8-0.8
		C-154.5,425.9-152.7,425.8-151.1,425.8z M-150.6,433.2c-0.6,0-1.2,0-1.7,0.1c-0.5,0-1,0.1-1.4,0.1v10.4h2.4c3.2,0,5.6-0.4,7-1.2
		c1.4-0.8,2.1-2.2,2.1-4.1c0-1.9-0.7-3.2-2.1-4C-145.7,433.6-147.8,433.2-150.6,433.2z"/>
	<path fill="#075CE6" d="M-115.5,464.6v-38.3h25.9v7.2h-17.3v7.5h15.3v7.1h-15.3v9.2h18.5v7.2H-115.5z"/>
	<path d="M-60.1,426.3c0.7,1.2,1.4,2.7,2.3,4.5c0.9,1.8,1.8,3.7,2.7,5.8c0.9,2.1,1.9,4.2,2.8,6.4c0.9,2.2,1.8,4.2,2.6,6.1
		c0.8-1.9,1.7-4,2.6-6.1c0.9-2.2,1.9-4.3,2.8-6.4c0.9-2.1,1.8-4,2.7-5.8c0.9-1.8,1.6-3.3,2.3-4.5h7.9c0.4,2.5,0.7,5.4,1,8.5
		c0.3,3.2,0.6,6.4,0.8,9.8c0.2,3.4,0.5,6.8,0.7,10.3c0.2,3.4,0.4,6.7,0.5,9.7h-8.4c-0.1-3.7-0.3-7.8-0.4-12.2
		c-0.2-4.4-0.5-8.8-0.8-13.3c-0.7,1.5-1.4,3.3-2.2,5.1c-0.8,1.9-1.6,3.8-2.4,5.6c-0.8,1.9-1.6,3.7-2.3,5.4c-0.7,1.7-1.4,3.2-1.9,4.4
		h-6c-0.5-1.2-1.1-2.7-1.9-4.4c-0.7-1.7-1.5-3.5-2.3-5.4s-1.6-3.8-2.4-5.6c-0.8-1.9-1.6-3.6-2.2-5.1c-0.4,4.5-0.6,8.9-0.8,13.3
		c-0.2,4.4-0.3,8.4-0.4,12.2h-8.4c0.1-3,0.3-6.3,0.5-9.7c0.2-3.4,0.4-6.9,0.7-10.3c0.2-3.4,0.5-6.7,0.8-9.8c0.3-3.2,0.7-6,1-8.5
		H-60.1z"/>
	<path d="M16,464.6c-0.4-1.3-0.9-2.7-1.4-4.1c-0.5-1.4-1-2.8-1.5-4.2h-15c-0.5,1.4-1,2.8-1.5,4.2c-0.5,1.4-0.9,2.8-1.4,4.1h-9
		c1.4-4.1,2.8-7.9,4.1-11.5c1.3-3.5,2.6-6.8,3.8-9.9c1.2-3.1,2.5-6,3.7-8.8s2.5-5.5,3.7-8.2h8.2c1.3,2.7,2.5,5.4,3.7,8.2
		s2.5,5.7,3.7,8.8c1.2,3.1,2.5,6.4,3.8,9.9c1.3,3.5,2.7,7.3,4.1,11.5H16z M5.6,435c-0.2,0.6-0.5,1.3-0.8,2.3c-0.4,1-0.8,2.1-1.3,3.3
		c-0.5,1.3-1,2.6-1.6,4.1c-0.6,1.5-1.2,3.1-1.8,4.8h11c-0.6-1.7-1.2-3.3-1.7-4.8c-0.5-1.5-1.1-2.9-1.6-4.2c-0.5-1.3-0.9-2.4-1.3-3.3
		C6.1,436.3,5.8,435.5,5.6,435z"/>
	<path d="M52.6,425.8c5.7,0,10.1,1,13.2,3c3.1,2,4.6,5.3,4.6,9.9c0,4.6-1.5,7.9-4.6,10c-3.1,2-7.5,3.1-13.3,3.1h-2.7v12.8h-8.6
		v-37.8c1.9-0.4,3.9-0.6,6-0.8C49.2,425.9,51,425.8,52.6,425.8z M53.2,433.2c-0.6,0-1.2,0-1.9,0.1c-0.6,0-1.1,0.1-1.6,0.1v11.1h2.7
		c3,0,5.2-0.4,6.7-1.2c1.5-0.8,2.3-2.3,2.3-4.5c0-1.1-0.2-2-0.6-2.7c-0.4-0.7-0.9-1.3-1.7-1.7c-0.7-0.4-1.6-0.7-2.6-0.9
		C55.6,433.3,54.4,433.2,53.2,433.2z"/>
</g>
</svg>
